<svg xmlns="http://www.w3.org/2000/svg" width="512" height="512" viewBox="0 0 512 512" role="img" aria-label="Reperibilità Smart">
  <defs>
    <linearGradient id="g" x1="0" x2="1" y1="0" y2="1">
      <stop offset="0" stop-color="#667eea"/>
      <stop offset="1" stop-color="#764ba2"/>
    </linearGradient>
  </defs>
  <rect width="512" height="512" rx="118" fill="url(#g)"/>
  <rect x="96" y="112" width="320" height="300" rx="42" fill="#ffffff"/>
  <rect x="96" y="112" width="320" height="86" rx="42" fill="#764ba2"/>
  <rect x="96" y="158" width="320" height="48" fill="#764ba2"/>
  <circle cx="184" cy="152" r="18" fill="#ffffff"/>
  <circle cx="328" cy="152" r="18" fill="#ffffff"/>
  <rect x="154" y="246" width="62" height="62" rx="16" fill="#dcfce7"/>
  <rect x="230" y="246" width="62" height="62" rx="16" fill="#fef3c7"/>
  <rect x="306" y="246" width="62" height="62" rx="16" fill="#fee2e2"/>
  <rect x="154" y="326" width="62" height="62" rx="16" fill="#dbeafe"/>
  <rect x="230" y="326" width="62" height="62" rx="16" fill="#e0e7ff"/>
  <path d="M338 360l31 31 62-76" fill="none" stroke="#22c55e" stroke-width="28" stroke-linecap="round" stroke-linejoin="round"/>
</svg>
